<mxfile host="app.diagrams.net" agent="Mozilla/5.0 (Windows NT 10.0; Win64; x64) AppleWebKit/537.36 (KHTML, like Gecko) Chrome/127.0.0.0 Safari/537.36" version="24.7.8">
  <diagram id="C5RBs43oDa-KdzZeNtuy" name="Page-1">
    <mxGraphModel dx="1434" dy="746" grid="1" gridSize="10" guides="1" tooltips="1" connect="1" arrows="1" fold="1" page="1" pageScale="1" pageWidth="827" pageHeight="1169" math="0" shadow="0">
      <root>
        <mxCell id="WIyWlLk6GJQsqaUBKTNV-0" />
        <mxCell id="WIyWlLk6GJQsqaUBKTNV-1" parent="WIyWlLk6GJQsqaUBKTNV-0" />
        <mxCell id="9JtKDe7apVkJXHzbWkdU-3" style="edgeStyle=orthogonalEdgeStyle;rounded=0;orthogonalLoop=1;jettySize=auto;html=1;exitX=0.5;exitY=1;exitDx=0;exitDy=0;exitPerimeter=0;entryX=0.5;entryY=0;entryDx=0;entryDy=0;labelBackgroundColor=none;strokeColor=#457B9D;fontColor=default;" edge="1" parent="WIyWlLk6GJQsqaUBKTNV-1" source="9JtKDe7apVkJXHzbWkdU-0" target="9JtKDe7apVkJXHzbWkdU-1">
          <mxGeometry relative="1" as="geometry" />
        </mxCell>
        <mxCell id="9JtKDe7apVkJXHzbWkdU-0" value="开始调整Pod的resource定义" style="strokeWidth=2;html=1;shape=mxgraph.flowchart.start_1;whiteSpace=wrap;labelBackgroundColor=none;fillColor=#A8DADC;strokeColor=#457B9D;fontColor=#1D3557;" vertex="1" parent="WIyWlLk6GJQsqaUBKTNV-1">
          <mxGeometry x="340" y="180" width="100" height="60" as="geometry" />
        </mxCell>
        <mxCell id="9JtKDe7apVkJXHzbWkdU-1" value="从缓存中根据种子类型取出之前Pod资源实际占用的最高值&lt;div&gt;value&lt;/div&gt;" style="rounded=1;whiteSpace=wrap;html=1;absoluteArcSize=1;arcSize=14;strokeWidth=2;labelBackgroundColor=none;fillColor=#A8DADC;strokeColor=#457B9D;fontColor=#1D3557;" vertex="1" parent="WIyWlLk6GJQsqaUBKTNV-1">
          <mxGeometry x="300" y="290" width="180" height="60" as="geometry" />
        </mxCell>
        <mxCell id="9JtKDe7apVkJXHzbWkdU-8" style="edgeStyle=orthogonalEdgeStyle;rounded=0;orthogonalLoop=1;jettySize=auto;html=1;exitX=0.5;exitY=1;exitDx=0;exitDy=0;entryX=0.5;entryY=0;entryDx=0;entryDy=0;labelBackgroundColor=none;strokeColor=#457B9D;fontColor=default;" edge="1" parent="WIyWlLk6GJQsqaUBKTNV-1" source="9JtKDe7apVkJXHzbWkdU-5" target="9JtKDe7apVkJXHzbWkdU-13">
          <mxGeometry relative="1" as="geometry">
            <mxPoint x="390" y="450" as="sourcePoint" />
            <mxPoint x="390" y="490" as="targetPoint" />
            <Array as="points" />
          </mxGeometry>
        </mxCell>
        <mxCell id="9JtKDe7apVkJXHzbWkdU-4" style="edgeStyle=orthogonalEdgeStyle;rounded=0;orthogonalLoop=1;jettySize=auto;html=1;exitX=0.5;exitY=1;exitDx=0;exitDy=0;entryX=0.5;entryY=0;entryDx=0;entryDy=0;labelBackgroundColor=none;strokeColor=#457B9D;fontColor=default;" edge="1" parent="WIyWlLk6GJQsqaUBKTNV-1" source="9JtKDe7apVkJXHzbWkdU-1" target="9JtKDe7apVkJXHzbWkdU-5">
          <mxGeometry relative="1" as="geometry">
            <mxPoint x="390" y="390" as="targetPoint" />
          </mxGeometry>
        </mxCell>
        <mxCell id="9JtKDe7apVkJXHzbWkdU-5" value="value=min(value,scaleMax)" style="rounded=1;whiteSpace=wrap;html=1;absoluteArcSize=1;arcSize=14;strokeWidth=2;labelBackgroundColor=none;fillColor=#A8DADC;strokeColor=#457B9D;fontColor=#1D3557;" vertex="1" parent="WIyWlLk6GJQsqaUBKTNV-1">
          <mxGeometry x="300" y="395" width="180" height="50" as="geometry" />
        </mxCell>
        <mxCell id="9JtKDe7apVkJXHzbWkdU-17" style="edgeStyle=orthogonalEdgeStyle;rounded=0;orthogonalLoop=1;jettySize=auto;html=1;exitX=0;exitY=0.5;exitDx=0;exitDy=0;entryX=0.5;entryY=0;entryDx=0;entryDy=0;labelBackgroundColor=none;strokeColor=#457B9D;fontColor=default;" edge="1" parent="WIyWlLk6GJQsqaUBKTNV-1" source="9JtKDe7apVkJXHzbWkdU-13" target="9JtKDe7apVkJXHzbWkdU-15">
          <mxGeometry relative="1" as="geometry" />
        </mxCell>
        <mxCell id="9JtKDe7apVkJXHzbWkdU-13" value="根据value分别计算request和limit" style="rounded=1;whiteSpace=wrap;html=1;absoluteArcSize=1;arcSize=14;strokeWidth=2;labelBackgroundColor=none;fillColor=#A8DADC;strokeColor=#457B9D;fontColor=#1D3557;" vertex="1" parent="WIyWlLk6GJQsqaUBKTNV-1">
          <mxGeometry x="340" y="495" width="100" height="50" as="geometry" />
        </mxCell>
        <mxCell id="9JtKDe7apVkJXHzbWkdU-21" value="" style="edgeStyle=orthogonalEdgeStyle;rounded=0;orthogonalLoop=1;jettySize=auto;html=1;labelBackgroundColor=none;strokeColor=#457B9D;fontColor=default;" edge="1" parent="WIyWlLk6GJQsqaUBKTNV-1" source="9JtKDe7apVkJXHzbWkdU-15" target="9JtKDe7apVkJXHzbWkdU-19">
          <mxGeometry relative="1" as="geometry" />
        </mxCell>
        <mxCell id="9JtKDe7apVkJXHzbWkdU-15" value="request=value*requestRatio/100" style="rounded=1;whiteSpace=wrap;html=1;absoluteArcSize=1;arcSize=14;strokeWidth=2;labelBackgroundColor=none;fillColor=#A8DADC;strokeColor=#457B9D;fontColor=#1D3557;" vertex="1" parent="WIyWlLk6GJQsqaUBKTNV-1">
          <mxGeometry x="90" y="620" width="220" height="50" as="geometry" />
        </mxCell>
        <mxCell id="9JtKDe7apVkJXHzbWkdU-16" value="limit=value*limitRatio/100" style="rounded=1;whiteSpace=wrap;html=1;absoluteArcSize=1;arcSize=14;strokeWidth=2;labelBackgroundColor=none;fillColor=#A8DADC;strokeColor=#457B9D;fontColor=#1D3557;" vertex="1" parent="WIyWlLk6GJQsqaUBKTNV-1">
          <mxGeometry x="460" y="620" width="220" height="50" as="geometry" />
        </mxCell>
        <mxCell id="9JtKDe7apVkJXHzbWkdU-18" style="edgeStyle=orthogonalEdgeStyle;rounded=0;orthogonalLoop=1;jettySize=auto;html=1;exitX=1;exitY=0.5;exitDx=0;exitDy=0;entryX=0.5;entryY=0;entryDx=0;entryDy=0;labelBackgroundColor=none;strokeColor=#457B9D;fontColor=default;" edge="1" parent="WIyWlLk6GJQsqaUBKTNV-1" source="9JtKDe7apVkJXHzbWkdU-13">
          <mxGeometry relative="1" as="geometry">
            <mxPoint x="770" y="547" as="sourcePoint" />
            <mxPoint x="580" y="622" as="targetPoint" />
          </mxGeometry>
        </mxCell>
        <mxCell id="9JtKDe7apVkJXHzbWkdU-22" value="" style="edgeStyle=orthogonalEdgeStyle;rounded=0;orthogonalLoop=1;jettySize=auto;html=1;labelBackgroundColor=none;strokeColor=#457B9D;fontColor=default;" edge="1" parent="WIyWlLk6GJQsqaUBKTNV-1" source="9JtKDe7apVkJXHzbWkdU-19" target="9JtKDe7apVkJXHzbWkdU-20">
          <mxGeometry relative="1" as="geometry" />
        </mxCell>
        <mxCell id="9JtKDe7apVkJXHzbWkdU-37" value="Y" style="edgeLabel;html=1;align=center;verticalAlign=middle;resizable=0;points=[];labelBackgroundColor=none;fontColor=#1D3557;" vertex="1" connectable="0" parent="9JtKDe7apVkJXHzbWkdU-22">
          <mxGeometry x="-0.25" relative="1" as="geometry">
            <mxPoint as="offset" />
          </mxGeometry>
        </mxCell>
        <mxCell id="9JtKDe7apVkJXHzbWkdU-35" style="edgeStyle=orthogonalEdgeStyle;rounded=0;orthogonalLoop=1;jettySize=auto;html=1;exitX=0;exitY=0.5;exitDx=0;exitDy=0;exitPerimeter=0;entryX=0;entryY=0.25;entryDx=0;entryDy=0;labelBackgroundColor=none;strokeColor=#457B9D;fontColor=default;" edge="1" parent="WIyWlLk6GJQsqaUBKTNV-1" source="9JtKDe7apVkJXHzbWkdU-19" target="9JtKDe7apVkJXHzbWkdU-28">
          <mxGeometry relative="1" as="geometry">
            <Array as="points">
              <mxPoint x="20" y="735" />
              <mxPoint x="20" y="913" />
            </Array>
          </mxGeometry>
        </mxCell>
        <mxCell id="9JtKDe7apVkJXHzbWkdU-38" value="N" style="edgeLabel;html=1;align=center;verticalAlign=middle;resizable=0;points=[];labelBackgroundColor=none;fontColor=#1D3557;" vertex="1" connectable="0" parent="9JtKDe7apVkJXHzbWkdU-35">
          <mxGeometry x="0.12" y="-2" relative="1" as="geometry">
            <mxPoint as="offset" />
          </mxGeometry>
        </mxCell>
        <mxCell id="9JtKDe7apVkJXHzbWkdU-19" value="定义了requestBound?" style="strokeWidth=2;html=1;shape=mxgraph.flowchart.decision;whiteSpace=wrap;labelBackgroundColor=none;fillColor=#A8DADC;strokeColor=#457B9D;fontColor=#1D3557;" vertex="1" parent="WIyWlLk6GJQsqaUBKTNV-1">
          <mxGeometry x="110" y="710" width="180" height="50" as="geometry" />
        </mxCell>
        <mxCell id="9JtKDe7apVkJXHzbWkdU-31" style="edgeStyle=orthogonalEdgeStyle;rounded=0;orthogonalLoop=1;jettySize=auto;html=1;exitX=0.5;exitY=1;exitDx=0;exitDy=0;entryX=0.5;entryY=0;entryDx=0;entryDy=0;labelBackgroundColor=none;strokeColor=#457B9D;fontColor=default;" edge="1" parent="WIyWlLk6GJQsqaUBKTNV-1" source="9JtKDe7apVkJXHzbWkdU-20" target="9JtKDe7apVkJXHzbWkdU-28">
          <mxGeometry relative="1" as="geometry" />
        </mxCell>
        <mxCell id="9JtKDe7apVkJXHzbWkdU-20" value="request=max(request,requestBound)" style="rounded=1;whiteSpace=wrap;html=1;absoluteArcSize=1;arcSize=14;strokeWidth=2;labelBackgroundColor=none;fillColor=#A8DADC;strokeColor=#457B9D;fontColor=#1D3557;" vertex="1" parent="WIyWlLk6GJQsqaUBKTNV-1">
          <mxGeometry x="60" y="800" width="280" height="50" as="geometry" />
        </mxCell>
        <mxCell id="9JtKDe7apVkJXHzbWkdU-23" value="" style="edgeStyle=orthogonalEdgeStyle;rounded=0;orthogonalLoop=1;jettySize=auto;html=1;labelBackgroundColor=none;strokeColor=#457B9D;fontColor=default;" edge="1" parent="WIyWlLk6GJQsqaUBKTNV-1" target="9JtKDe7apVkJXHzbWkdU-25">
          <mxGeometry relative="1" as="geometry">
            <mxPoint x="580" y="670" as="sourcePoint" />
          </mxGeometry>
        </mxCell>
        <mxCell id="9JtKDe7apVkJXHzbWkdU-24" value="" style="edgeStyle=orthogonalEdgeStyle;rounded=0;orthogonalLoop=1;jettySize=auto;html=1;labelBackgroundColor=none;strokeColor=#457B9D;fontColor=default;" edge="1" parent="WIyWlLk6GJQsqaUBKTNV-1" source="9JtKDe7apVkJXHzbWkdU-25" target="9JtKDe7apVkJXHzbWkdU-26">
          <mxGeometry relative="1" as="geometry" />
        </mxCell>
        <mxCell id="9JtKDe7apVkJXHzbWkdU-39" value="Y" style="edgeLabel;html=1;align=center;verticalAlign=middle;resizable=0;points=[];labelBackgroundColor=none;fontColor=#1D3557;" vertex="1" connectable="0" parent="9JtKDe7apVkJXHzbWkdU-24">
          <mxGeometry x="-0.3" y="-2" relative="1" as="geometry">
            <mxPoint as="offset" />
          </mxGeometry>
        </mxCell>
        <mxCell id="9JtKDe7apVkJXHzbWkdU-36" style="edgeStyle=orthogonalEdgeStyle;rounded=0;orthogonalLoop=1;jettySize=auto;html=1;exitX=1;exitY=0.5;exitDx=0;exitDy=0;exitPerimeter=0;entryX=1;entryY=0.5;entryDx=0;entryDy=0;labelBackgroundColor=none;strokeColor=#457B9D;fontColor=default;" edge="1" parent="WIyWlLk6GJQsqaUBKTNV-1" source="9JtKDe7apVkJXHzbWkdU-25" target="9JtKDe7apVkJXHzbWkdU-29">
          <mxGeometry relative="1" as="geometry">
            <Array as="points">
              <mxPoint x="760" y="735" />
              <mxPoint x="760" y="925" />
            </Array>
          </mxGeometry>
        </mxCell>
        <mxCell id="9JtKDe7apVkJXHzbWkdU-40" value="N" style="edgeLabel;html=1;align=center;verticalAlign=middle;resizable=0;points=[];labelBackgroundColor=none;fontColor=#1D3557;" vertex="1" connectable="0" parent="9JtKDe7apVkJXHzbWkdU-36">
          <mxGeometry x="0.05" relative="1" as="geometry">
            <mxPoint as="offset" />
          </mxGeometry>
        </mxCell>
        <mxCell id="9JtKDe7apVkJXHzbWkdU-25" value="定义了limitBound?" style="strokeWidth=2;html=1;shape=mxgraph.flowchart.decision;whiteSpace=wrap;labelBackgroundColor=none;fillColor=#A8DADC;strokeColor=#457B9D;fontColor=#1D3557;" vertex="1" parent="WIyWlLk6GJQsqaUBKTNV-1">
          <mxGeometry x="490" y="710" width="180" height="50" as="geometry" />
        </mxCell>
        <mxCell id="9JtKDe7apVkJXHzbWkdU-32" style="edgeStyle=orthogonalEdgeStyle;rounded=0;orthogonalLoop=1;jettySize=auto;html=1;exitX=0.5;exitY=1;exitDx=0;exitDy=0;entryX=0.5;entryY=0;entryDx=0;entryDy=0;labelBackgroundColor=none;strokeColor=#457B9D;fontColor=default;" edge="1" parent="WIyWlLk6GJQsqaUBKTNV-1" source="9JtKDe7apVkJXHzbWkdU-26" target="9JtKDe7apVkJXHzbWkdU-29">
          <mxGeometry relative="1" as="geometry" />
        </mxCell>
        <mxCell id="9JtKDe7apVkJXHzbWkdU-26" value="limit=min(limit,limitBound)" style="rounded=1;whiteSpace=wrap;html=1;absoluteArcSize=1;arcSize=14;strokeWidth=2;labelBackgroundColor=none;fillColor=#A8DADC;strokeColor=#457B9D;fontColor=#1D3557;" vertex="1" parent="WIyWlLk6GJQsqaUBKTNV-1">
          <mxGeometry x="440" y="800" width="280" height="50" as="geometry" />
        </mxCell>
        <mxCell id="9JtKDe7apVkJXHzbWkdU-28" value="容器的资源requst=max(request,初始配置的request)" style="rounded=1;whiteSpace=wrap;html=1;absoluteArcSize=1;arcSize=14;strokeWidth=2;labelBackgroundColor=none;fillColor=#A8DADC;strokeColor=#457B9D;fontColor=#1D3557;" vertex="1" parent="WIyWlLk6GJQsqaUBKTNV-1">
          <mxGeometry x="60" y="900" width="280" height="50" as="geometry" />
        </mxCell>
        <mxCell id="9JtKDe7apVkJXHzbWkdU-29" value="容器的资源limit=max(limit,初始配置的limit)" style="rounded=1;whiteSpace=wrap;html=1;absoluteArcSize=1;arcSize=14;strokeWidth=2;labelBackgroundColor=none;fillColor=#A8DADC;strokeColor=#457B9D;fontColor=#1D3557;" vertex="1" parent="WIyWlLk6GJQsqaUBKTNV-1">
          <mxGeometry x="440" y="900" width="280" height="50" as="geometry" />
        </mxCell>
        <mxCell id="9JtKDe7apVkJXHzbWkdU-30" value="创建Pod" style="strokeWidth=2;html=1;shape=mxgraph.flowchart.terminator;whiteSpace=wrap;labelBackgroundColor=none;fillColor=#A8DADC;strokeColor=#457B9D;fontColor=#1D3557;" vertex="1" parent="WIyWlLk6GJQsqaUBKTNV-1">
          <mxGeometry x="350" y="1020" width="100" height="60" as="geometry" />
        </mxCell>
        <mxCell id="9JtKDe7apVkJXHzbWkdU-33" style="edgeStyle=orthogonalEdgeStyle;rounded=0;orthogonalLoop=1;jettySize=auto;html=1;entryX=0;entryY=0.5;entryDx=0;entryDy=0;entryPerimeter=0;exitX=0.5;exitY=1;exitDx=0;exitDy=0;labelBackgroundColor=none;strokeColor=#457B9D;fontColor=default;" edge="1" parent="WIyWlLk6GJQsqaUBKTNV-1" source="9JtKDe7apVkJXHzbWkdU-28" target="9JtKDe7apVkJXHzbWkdU-30">
          <mxGeometry relative="1" as="geometry" />
        </mxCell>
        <mxCell id="9JtKDe7apVkJXHzbWkdU-34" style="edgeStyle=orthogonalEdgeStyle;rounded=0;orthogonalLoop=1;jettySize=auto;html=1;entryX=1;entryY=0.5;entryDx=0;entryDy=0;entryPerimeter=0;labelBackgroundColor=none;strokeColor=#457B9D;fontColor=default;" edge="1" parent="WIyWlLk6GJQsqaUBKTNV-1" source="9JtKDe7apVkJXHzbWkdU-29" target="9JtKDe7apVkJXHzbWkdU-30">
          <mxGeometry relative="1" as="geometry" />
        </mxCell>
      </root>
    </mxGraphModel>
  </diagram>
</mxfile>
